<?xml version="1.0" standalone="no"?>
<!DOCTYPE svg PUBLIC "-//W3C//DTD SVG 20010904//EN"
 "http://www.w3.org/TR/2001/REC-SVG-20010904/DTD/svg10.dtd">
<svg version="1.0" xmlns="http://www.w3.org/2000/svg"
 width="345.000000pt" height="345.000000pt" viewBox="0 0 345.000000 345.000000"
 preserveAspectRatio="xMidYMid meet">
<metadata>
Created by potrace 1.14, written by Peter Selinger 2001-2017
</metadata>
<g transform="translate(0.000000,345.000000) scale(0.100000,-0.100000)"
fill="#000000" stroke="none">
<path d="M1606 3293 c-1 -2 -29 -5 -62 -8 -32 -3 -66 -7 -74 -9 -8 -1 -36 -6
-62 -10 -68 -12 -82 -25 -80 -77 l1 -44 -100 -33 c-99 -33 -119 -34 -119 -7 0
24 -39 44 -68 35 -54 -15 -233 -125 -299 -183 -34 -30 -36 -51 -8 -93 15 -23
13 -26 -64 -103 -77 -78 -79 -80 -96 -61 -31 34 -69 26 -108 -22 -66 -84 -177
-272 -177 -303 0 -12 23 -37 52 -58 16 -11 15 -19 -17 -112 l-35 -100 -36 3
c-46 5 -70 -17 -79 -71 -4 -23 -9 -51 -11 -62 -7 -36 -15 -129 -18 -199 -3
-62 0 -72 21 -94 13 -13 30 -21 38 -18 30 11 42 -4 44 -58 2 -53 6 -83 17
-138 5 -23 2 -28 -15 -28 -11 0 -32 -11 -47 -24 l-28 -23 18 -69 c28 -106 97
-275 121 -300 23 -23 54 -23 83 -1 7 5 14 8 15 6 2 -2 29 -46 61 -97 l58 -93
-26 -20 c-46 -37 -36 -63 69 -178 72 -79 174 -161 200 -161 13 0 35 11 47 25
l24 25 76 -47 c42 -27 84 -53 94 -59 17 -10 17 -14 5 -37 -24 -44 -8 -71 59
-101 82 -37 182 -72 258 -89 71 -16 87 -10 101 38 8 32 15 33 136 21 22 -2 52
-4 68 -5 23 -1 27 -5 27 -31 0 -17 9 -39 21 -51 19 -19 28 -20 118 -15 130 8
272 33 291 52 8 8 15 33 15 56 l0 41 70 23 c39 13 78 28 87 34 28 16 48 12 59
-14 21 -46 50 -48 124 -11 83 43 195 117 240 159 37 36 40 63 9 97 -16 18 -13
23 62 98 68 69 81 78 94 66 8 -7 27 -16 42 -20 22 -6 32 -1 53 21 38 41 112
155 156 239 43 84 42 109 -6 132 l-33 16 22 56 c12 31 28 78 36 104 13 47 14
48 47 44 39 -6 71 16 79 53 16 79 25 147 30 243 8 124 -2 147 -63 147 -25 0
-33 4 -34 18 0 27 -9 102 -18 154 l-8 47 34 12 c57 18 60 42 23 160 -18 57
-48 139 -67 182 -38 82 -61 100 -101 78 -12 -6 -25 -11 -30 -11 -5 0 -35 41
-67 91 l-58 91 27 24 c14 14 26 34 26 44 0 33 -143 189 -242 263 -53 39 -77
39 -108 0 l-19 -25 -43 30 c-24 16 -66 42 -95 57 -51 29 -51 29 -39 60 19 45
5 72 -51 96 -80 35 -204 76 -270 90 -71 15 -87 7 -102 -45 -4 -17 -12 -30 -17
-29 -32 5 -122 16 -134 15 -45 -2 -60 8 -60 42 0 47 -21 61 -97 61 -36 0 -66
-1 -67 -2z m377 -237 c471 -105 836 -416 1005 -856 22 -56 57 -181 67 -235 26
-154 23 -381 -8 -520 -63 -276 -182 -493 -378 -687 -296 -292 -684 -427 -1109
-384 -287 29 -586 174 -802 389 -184 184 -309 408 -363 656 -35 161 -44 289
-30 441 38 408 276 788 640 1021 76 49 272 135 332 145 6 1 27 7 45 13 125 41
452 50 601 17z"/>
<path d="M1688 2768 c-36 -12 -47 -48 -47 -153 1 -121 6 -143 37 -159 33 -16
57 -13 83 10 15 14 19 31 19 92 l0 74 61 -6 c71 -8 204 -48 274 -84 200 -100
370 -287 447 -490 35 -91 59 -117 101 -107 41 11 61 39 54 79 -18 112 -144
322 -265 443 -72 72 -256 203 -285 203 -7 0 -17 4 -23 9 -5 5 -41 20 -81 35
-121 43 -321 72 -375 54z"/>
<path d="M1369 2716 c-158 -55 -271 -127 -395 -250 -142 -141 -232 -296 -281
-485 -20 -77 -25 -123 -26 -231 -2 -151 3 -202 34 -310 77 -278 280 -526 534
-653 90 -45 211 -86 235 -80 48 13 68 76 36 111 -8 10 -42 26 -73 36 -284 89
-510 324 -599 622 -36 123 -42 310 -14 436 69 315 286 561 592 672 84 31 93
38 103 78 5 21 1 33 -19 52 -31 32 -43 32 -127 2z"/>
<path d="M1595 2283 c-311 -63 -513 -380 -440 -691 48 -205 222 -379 426 -426
89 -21 226 -15 309 14 193 66 340 229 382 425 64 295 -122 596 -415 672 -80
20 -177 23 -262 6z m269 -154 c175 -65 291 -242 281 -427 -11 -200 -154 -366
-354 -408 -54 -11 -154 -3 -213 17 -258 87 -373 374 -248 619 30 60 124 151
185 180 108 52 242 60 349 19z"/>
<path d="M2512 1789 c-66 -9 -93 -61 -54 -109 16 -20 29 -23 91 -24 l73 -1 -6
-55 c-14 -126 -79 -290 -160 -405 -94 -131 -249 -255 -396 -315 -57 -24 -239
-70 -274 -70 -3 0 -6 33 -6 74 0 69 -2 76 -27 96 -19 15 -35 19 -53 15 -50
-12 -55 -27 -57 -157 -1 -115 0 -122 23 -144 22 -23 29 -24 106 -19 93 6 117
9 203 31 444 111 776 523 786 977 2 58 -18 106 -44 108 -93 3 -170 3 -205 -2z"/>
</g>
</svg>
